<?xml version="1.0" standalone="no"?>
<!DOCTYPE svg PUBLIC "-//W3C//DTD SVG 20010904//EN"
 "http://www.w3.org/TR/2001/REC-SVG-20010904/DTD/svg10.dtd">
<svg version="1.0" xmlns="http://www.w3.org/2000/svg"
 width="512.000000pt" height="512.000000pt" viewBox="0 0 512.000000 512.000000"
 preserveAspectRatio="xMidYMid meet">
<metadata>
Created by potrace 1.11, written by Peter Selinger 2001-2013
</metadata>
<g transform="translate(0.000000,512.000000) scale(0.100000,-0.100000)"
fill="#000000" stroke="none">
<path d="M2035 5063 c-145 -27 -254 -89 -343 -196 -177 -212 -163 -521 32
-726 50 -52 56 -63 36 -58 -34 9 -185 35 -235 41 -139 16 -195 20 -325 20
-222 0 -338 -16 -439 -60 -134 -60 -142 -132 -37 -338 35 -68 77 -143 93 -167
57 -84 57 -83 15 -126 -40 -39 -148 -166 -192 -223 -43 -56 -133 -212 -170
-292 l-35 -77 -150 -1 c-171 0 -197 -8 -249 -73 l-31 -39 -3 -366 c-2 -318 -1
-372 14 -419 25 -78 70 -116 249 -207 l157 -79 53 -112 c142 -295 358 -542
665 -757 l55 -39 0 -292 c1 -277 2 -294 22 -332 21 -40 43 -59 94 -81 18 -8
126 -11 360 -10 321 1 336 2 374 22 62 34 93 68 131 144 19 38 34 72 34 74 0
3 12 30 26 60 l25 54 202 -1 c182 -1 296 4 382 18 l30 5 1 -122 c1 -156 18
-197 101 -238 32 -15 72 -17 355 -18 352 -1 378 3 448 58 37 29 79 108 419
789 339 678 424 860 445 963 3 13 7 34 10 48 15 66 25 129 29 169 5 43 18 60
47 61 30 1 152 49 198 79 112 72 176 165 188 274 13 119 -58 228 -189 291
-112 54 -108 55 -134 -44 -27 -103 -27 -110 -8 -110 24 0 96 -40 116 -64 50
-59 2 -143 -116 -200 -82 -41 -89 -38 -99 39 -36 269 -177 578 -381 840 -237
302 -605 571 -975 711 -41 15 -77 29 -79 31 -2 1 36 44 85 94 131 134 140 147
176 239 86 218 33 446 -141 608 -212 197 -569 179 -765 -39 l-44 -49 -69 68
c-70 69 -157 120 -243 142 -45 12 -177 20 -215 13z"/>
</g>
</svg>
